# AST/ASF file generated using VICON BodyLanguage
# -----------------------------------------------
:version 1.10
:name VICON
:units
  mass 1.0
  length 0.45
  angle deg
:documentation
   .ast/.asf automatically generated from VICON data using
   VICON BodyBuilder and BodyLanguage model FoxedUp or BRILLIANT.MOD
:root
   order TX TY TZ RX RY RZ
   axis XYZ
   position 0 0 0  
   orientation 0 0 0 
:bonedata
  begin
     id 1 
     name lhipjoint
     direction 0.561001 -0.76473 0.316963 
     length 2.4722 
     axis 0 0 0  XYZ
  end
  begin
     id 2 
     name lfemur
     direction 0.34202 -0.939693 0  
     length 7.59403  
     axis 0 0 20  XYZ
    dof rx ry rz
    limits (-160.0 20.0)
           (-70.0 70.0)
           (-60.0 70.0)
  end
  begin
     id 3 
     name ltibia
     direction 0.34202 -0.939693 0   
     length 7.89655   
     axis 0 0 20   XYZ
    dof rx
    limits (-10.0 170.0)
  end
  begin
     id 4 
     name lfoot
     direction 0.061296 -0.168409 0.98381   
     length 2.73287   
     axis -90 7.62852e-016 20   XYZ
    dof rx rz
    limits (-45.0 90.0)
           (-70.0 20.0)
  end
  begin
     id 5 
     name ltoes
     direction 1.53547e-011 -4.21984e-011 1   
     length 1.37057   
     axis -90 7.62852e-016 20   XYZ
    dof rx
    limits (-90.0 20.0)
  end
  begin
     id 6 
     name rhipjoint
     direction -0.559611 -0.765599 0.317323   
     length 2.46939  
     axis 0 0 0  XYZ 
  end
  begin
     id 7 
     name rfemur
     direction -0.34202 -0.939693 0   
     length 7.53712   
     axis 0 0 -20   XYZ
    dof rx ry rz
    limits (-160.0 20.0)
           (-70.0 70.0)
           (-70.0 60.0)
  end
  begin
     id 8 
     name rtibia
     direction -0.34202 -0.939693 0   
     length 8.12549   
     axis 0 0 -20   XYZ
    dof rx
    limits (-10.0 170.0)
 end
 begin
     id 9 
     name rfoot
     direction -0.066984 -0.184037 0.980634   
     length 2.67541  
     axis -90 -7.62852e-016 -20   XYZ
    dof rx rz
    limits (-45.0 90.0)
           (-20.0 70.0)
  end
  begin
     id 10 
     name rtoes
     direction -1.53549e-011 -4.21786e-011 1   
     length 1.34085   
     axis -90 -7.62852e-016 -20   XYZ
    dof rx
    limits (-90.0 20.0)
  end
  begin
     id 11 
     name lowerback
     direction -0.0522728 0.992594 -0.109658   
     length 2.05633   
     axis 0 0 0   XYZ
    dof rx ry rz
    limits (-20.0 45.0)
           (-30.0 30.0)
           (-30.0 30.0)
  end
  begin
     id 12 
     name upperback
     direction 0.00589338 0.999977 0.00335704   
     length 2.05845   
     axis 0 0 0   XYZ
    dof rx ry rz
    limits (-20.0 45.0)
           (-30.0 30.0)
           (-30.0 30.0)
  end
  begin
     id 13 
     name thorax
     direction 0.0292928 0.998059 0.0549487   
     length 2.09281   
     axis 0 0 0   XYZ
    dof rx ry rz
    limits (-20.0 45.0)
           (-30.0 30.0)
           (-30.0 30.0)
  end
  begin
     id 14 
     name lowerneck
     direction 0.0356368 0.980775 0.191858   
     length 1.84767   
     axis 0 0 0   XYZ
    dof rx ry rz
    limits (-20.0 45.0)
           (-30.0 30.0)
           (-30.0 30.0)
  end
  begin
     id 15 
     name upperneck
     direction -0.0227605 0.98931 -0.14404   
     length 1.89582   
     axis 0 0 0   XYZ
    dof rx ry rz
    limits (-20.0 45.0)
           (-30.0 30.0)
           (-30.0 30.0)
  end
  begin
     id 16
     name head
     direction -0.00932985 0.997511 -0.0698904  
     length 1.90213  
     axis 0 0 0   XYZ
    dof rx ry rz
    limits (-20.0 45.0)
           (-30.0 30.0)
           (-30.0 30.0)
  end
  begin
     id 17 
     name lclavicle
     direction 0.873442 0.479511 0.0846686  
     length 3.41193  
     axis 0 0 0   XYZ
    dof ry rz
    limits (-20.0 10.0)
           (0.0 20.0)
  end
  begin
     id 18 
     name lhumerus
     direction 1 -4.4897e-011 -5.62117e-018   
     length 5.59864   
     axis 180 -30 -90   XYZ
    dof rx ry rz
    limits (-60.0 90.0)
           (-90.0 90.0)
           (-90.0 90.0)
  end
  begin
     id 19
     name lradius
     direction 1 -4.48966e-011 -6.26295e-027   
     length 3.59542   
     axis 180 -30 -90   XYZ
    dof rx
    limits (-10.0 170.0)
  end
  begin
     id 20
     name lwrist
     direction 1 -4.48947e-011 -1.74096e-026   
     length 1.79771   
     axis 1.04567e-014 90 90   XYZ
    dof ry
    limits (-180.0 0.0)
 end
  begin
     id 21 
     name lhand
     direction 1 -4.49085e-011 -3.48469e-026   
     length 0.572014   
     axis 2.22196e-014 90 90   XYZ
    dof rx rz
    limits (-90.0 90.0)
           (-45.0 45.0)
  end
  begin
     id 22 
     name lfingers
     direction 1 -4.48884e-011 -6.96135e-026   
     length 0.461173   
     axis 4.44383e-014 90 90   XYZ
    dof rx
    limits (0.0 90.0)
  end
  begin
     id 23
     name lthumb
     direction 0.707107 -6.34976e-011 0.707107   
     length 0.662154   
     axis -90 45 -5.4397e-014   XYZ
    dof rx rz
    limits (-45.0 45.0)
           (-45.0 45.0)
  end
  begin
     id 24 
     name rclavicle
     direction -0.890242 0.443271 0.104786   
     length 3.46753  
     axis 0 0 0   XYZ 
    dof ry rz
    limits (-10.0 20.0)
           (-20.0 0.0)
  end
  begin
     id 25 
     name rhumerus
     direction -1 -4.48963e-011 -5.41723e-018  
     length 5.8094   
     axis 180 30 90   XYZ
    dof rx ry rz
    limits (-90.0 60.0)
           (-90.0 90.0)
           (-90.0 90.0)
  end
  begin
     id 26 
     name rradius
     direction -1 -4.48958e-011 -6.51059e-027   
     length 3.66953   
     axis 180 30 90   XYZ
    dof rx
    limits (-10.0 170.0)
  end
  begin
     id 27 
     name rwrist
     direction -1 -4.48975e-011 -1.74124e-026   
     length 1.83476   
     axis 1.04567e-014 -90 -90   XYZ
    dof ry
    limits (-180.0 0.0)
  end
  begin
     id 28
     name rhand
     direction -1 -4.49013e-011 -3.48326e-026   
     length 0.57843   
     axis 2.22196e-014 -90 -90   XYZ
    dof rx rz
    limits (-90.0 90.0)
           (-45.0 45.0)
  end
  begin
     id 29
     name rfingers
     direction -1 -4.49023e-011 -6.9669e-026   
     length 0.466345   
     axis 4.44383e-014 -90 -90   XYZ
    dof rx
    limits (0.0 90.0)
  end
  begin
     id 30
     name rthumb
     direction -0.707107 -6.34926e-011 0.707107   
     length 0.669581   
     axis -90 -45 5.4397e-014   XYZ
    dof rx rz
    limits (-45.0 45.0)
           (-45.0 45.0)
  end
:hierarchy
  begin
    root lhipjoint rhipjoint lowerback
    lhipjoint lfemur
    lfemur ltibia
    ltibia lfoot
    lfoot ltoes
    rhipjoint rfemur
    rfemur rtibia
    rtibia rfoot
    rfoot rtoes
    lowerback upperback
    upperback thorax
    thorax lowerneck lclavicle rclavicle
    lowerneck upperneck
    upperneck head
    lclavicle lhumerus
    lhumerus lradius
    lradius lwrist
    lwrist lhand lthumb
    lhand lfingers
    rclavicle rhumerus
    rhumerus rradius
    rradius rwrist
    rwrist rhand rthumb
    rhand rfingers
  end

#!OML:ASF H:\SkateBoarding\Project 1\Capture day 1\Session 1\Skater.ASF
:FULLY-SPECIFIED
:DEGREES
114
root 6.57332 18.8065 -13.3648 12.8397 38.2514 7.02373
lowerback 11.6074 -1.61991 -4.4631
upperback 0.0703985 -2.87863 -2.30227
thorax -6.34565 -1.29513 0.570536
lowerneck -19.1652 -4.06682 -0.308397
upperneck 34.1808 -5.91004 0.661293
head 15.1862 -2.33649 -0.728315
rclavicle 2.17669e-014 -1.90833e-014
rhumerus -25.383 9.81736 -85.8927
rradius 41.0832
rwrist -14.4528
rhand -37.9713 0.436657
rfingers 7.12502
rthumb -11.0115 -29.2545
lclavicle 2.17669e-014 -1.90833e-014
lhumerus -23.6032 -23.0578 89.5666
lradius 66.8243
lwrist 31.4119
lhand -23.4445 22.0449
lfingers 7.12502
lthumb 3.01388 52.0033
rfemur -37.8137 -2.66413 17.7819
rtibia 62.4375
rfoot -36.8752 6.09532
rtoes -13.8169
lfemur -10.4597 -0.192377 -11.4162
ltibia 65.1367
lfoot -21.3744 -9.70157
ltoes -17.1055
115
root 6.53437 18.8553 -13.0937 12.8031 39.5582 6.96976
lowerback 11.7741 -1.9968 -4.55069
upperback 0.108726 -3.37447 -1.90555
thorax -6.34899 -1.52933 1.12326
lowerneck -19.3184 -4.02693 -0.822074
upperneck 34.3986 -5.63622 0.591433
head 15.3404 -2.29098 -0.625823
rclavicle -1.04213e-013 1.59028e-014
rhumerus -24.814 10.6361 -85.2428
rradius 41.0474
rwrist -14.3778
rhand -38.5299 0.704462
rfingers 7.12502
rthumb -11.5503 -28.9573
lclavicle -1.04213e-013 1.59028e-014
lhumerus -23.3003 -22.3804 89.9157
lradius 66.7706
lwrist 31.5952
lhand -23.3441 22.0884
lfingers 7.12502
lthumb 3.11076 52.0454
rfemur -37.0872 -3.38021 18.1756
rtibia 61.5201
rfoot -37.1015 5.85147
rtoes -13.9518
lfemur -11.8502 0.740688 -11.5723
ltibia 66.5976
lfoot -22.8665 -11.14
ltoes -16.0241
116
root 6.49243 18.8999 -12.8201 12.8248 40.9341 6.88538
lowerback 11.839 -2.11005 -4.4218
upperback 0.0928894 -3.50469 -1.78958
thorax -6.39588 -1.59394 1.19777
lowerneck -19.2521 -4.25297 -0.889738
upperneck 34.5833 -5.96633 0.653491
head 15.4219 -2.42176 -0.649661
rclavicle 5.08889e-014 -3.51849e-014
rhumerus -24.6037 10.3067 -84.703
rradius 41.0325
rwrist -14.1481
rhand -39.1682 0.893244
rfingers 7.12502
rthumb -12.1658 -28.733
lclavicle 5.08889e-014 -3.51849e-014
lhumerus -23.0864 -22.8922 90.2629
lradius 66.6656
lwrist 31.515
lhand -23.2235 22.1737
lfingers 7.12502
lthumb 3.22729 52.129
rfemur -36.4779 -4.13193 18.6047
rtibia 60.6147
rfoot -37.2806 5.75523
rtoes -13.5189
lfemur -13.2383 1.61962 -11.7132
ltibia 67.7397
lfoot -24.5257 -10.8798
ltoes -16.3625
117
root 6.45512 18.9426 -12.5431 12.7641 42.2602 6.78866
lowerback 11.9449 -2.24968 -4.21042
upperback 0.0750889 -3.66376 -1.72072
thorax -6.47483 -1.67509 1.18389
lowerneck -19.138 -4.46105 -0.965312
upperneck 34.7349 -6.28087 0.751862
head 15.4795 -2.54315 -0.652406
rclavicle 4.43787e-014 1.47101e-014
rhumerus -24.4656 9.96695 -84.2361
rradius 41.0811
rwrist -14.0503
rhand -38.3781 0.653074
rfingers 7.12502
rthumb -11.4039 -29.0168
lclavicle 4.43787e-014 1.47101e-014
lhumerus -23.0169 -23.3428 90.5389
lradius 66.6981
lwrist 31.5475
lhand -23.2663 22.2893
lfingers 7.12502
lthumb 3.18597 52.2453
rfemur -35.826 -4.93604 19.0229
rtibia 59.7902
rfoot -37.4478 5.57347
rtoes -13.3484
lfemur -14.344 2.43357 -11.9163
ltibia 68.4853
lfoot -26.3263 -10.2163
ltoes -17.3749
118
root 6.42091 18.9852 -12.2672 12.6615 43.6074 6.59974
lowerback 11.9982 -2.06087 -3.60494
upperback -0.0307687 -3.35585 -1.99891
thorax -6.68354 -1.54322 0.506489
lowerneck -18.6068 -4.98333 -0.626033
upperneck 34.8244 -7.27949 1.04889
head 15.4096 -2.87011 -0.754677
rclavicle 3.38928e-014 -2.50469e-014
rhumerus -24.8466 8.07765 -83.8372
rradius 41.1232
rwrist -13.7838
rhand -38.4108 0.911147
rfingers 7.12502
rthumb -11.4355 -28.757
lclavicle 3.38928e-014 -2.50469e-014
lhumerus -23.1868 -25.2817 90.841
lradius 66.7486
lwrist 31.771
lhand -23.4724 22.4131
lfingers 7.12502
lthumb 2.98694 52.3719
rfemur -35.2722 -5.75591 19.4807
rtibia 58.9921
rfoot -37.5654 5.37531
rtoes -13.0631
lfemur -15.3512 3.15466 -12.0955
ltibia 68.8903
lfoot -28.0599 -9.45938
ltoes -17.9018
119
root 6.38263 19.0238 -11.9884 12.5306 44.9732 6.37763
lowerback 12.2106 -2.39555 -3.21907
upperback -0.12696 -3.75638 -1.9147
thorax -6.91197 -1.74532 0.460432
lowerneck -18.5725 -5.02251 -0.647163
upperneck 35.0013 -7.33592 1.06259
head 15.4895 -2.88762 -0.757072
rclavicle -9.21367e-014 5.56597e-015
rhumerus -24.7572 8.18148 -83.5903
rradius 41.1626
rwrist -13.8576
rhand -38.5665 1.01013
rfingers 7.12502
rthumb -11.5856 -28.6496
lclavicle -9.21367e-014 5.56597e-015
lhumerus -23.3585 -25.2374 90.9536
lradius 66.899
lwrist 31.6374
lhand -23.7299 22.5708
lfingers 7.12502
lthumb 2.73825 52.5329
rfemur -34.788 -6.57977 19.9998
rtibia 58.2763
rfoot -37.6545 5.0259
rtoes -13.0609
lfemur -16.2275 3.84948 -12.2355
ltibia 68.9345
lfoot -29.7847 -8.48486
ltoes -18.6372
120
root 6.35156 19.0608 -11.7137 12.4746 46.3155 6.2205
lowerback 12.1889 -2.7016 -3.4103
upperback -0.0752015 -4.14933 -1.35691
thorax -6.7771 -1.92488 1.21908
lowerneck -18.8855 -5.06133 -1.49815
upperneck 35.1202 -7.1156 1.14282
head 15.6653 -2.88833 -0.549562
rclavicle 2.60905e-014 9.74045e-015
rhumerus -24.3174 8.93342 -82.6684
rradius 41.2041
rwrist -14.1069
rhand -38.7442 1.14026
rfingers 7.12502
rthumb -11.757 -28.5098
lclavicle 2.60905e-014 9.74045e-015
lhumerus -23.1499 -24.615 91.573
lradius 67.0089
lwrist 31.59
lhand -23.8949 22.6071
lfingers 7.12502
lthumb 2.57889 52.5712
rfemur -34.4316 -7.47925 20.4062
rtibia 57.6068
rfoot -37.7145 4.58969
rtoes -13.2685
lfemur -17.0273 4.40333 -12.5367
ltibia 68.6494
lfoot -31.5377 -7.15505
ltoes -19.2883
121
root 6.31953 19.0946 -11.4329 12.3277 47.5265 6.0743
lowerback 12.1992 -2.58981 -3.07626
upperback -0.122448 -3.96783 -1.52994
thorax -6.87585 -1.84812 0.821743
lowerneck -18.4718 -5.46739 -1.22934
upperneck 35.1207 -7.90614 1.39939
head 15.5835 -3.14533 -0.620639
rclavicle 5.57094e-014 -1.55052e-014
rhumerus -24.7255 7.64138 -82.3139
rradius 41.4102
rwrist -14.1936
rhand -39.5866 1.75899
rfingers 7.12502
rthumb -12.5692 -27.8429
lclavicle 5.57094e-014 -1.55052e-014
lhumerus -23.4809 -26.0093 91.8533
lradius 67.2715
lwrist 31.8924
lhand -24.4067 22.9761
lfingers 7.12502
lthumb 2.08461 52.9457
rfemur -33.9949 -8.2301 20.7514
rtibia 57.0029
rfoot -37.6439 4.65836
rtoes -12.2146
lfemur -17.398 4.94946 -12.7832
ltibia 67.9907
lfoot -33.2178 -6.67596
ltoes -18.3043
122
root 6.28867 19.1271 -11.1558 12.41 48.6774 6.1511
lowerback 12.1868 -2.72379 -3.12782
upperback -0.142594 -4.14617 -1.42427
thorax -6.87296 -1.93153 0.99239
lowerneck -18.427 -5.62397 -1.41523
upperneck 35.1749 -8.11236 1.51323
head 15.6211 -3.23595 -0.578848
rclavicle 1.12313e-014 -1.86858e-014
rhumerus -24.7742 7.60826 -81.823
rradius 41.5889
rwrist -14.4612
rhand -39.5971 1.92213
rfingers 7.12502
rthumb -12.5794 -27.6792
lclavicle 1.12313e-014 -1.86858e-014
lhumerus -23.6081 -26.223 92.124
lradius 67.5536
lwrist 32.1107
lhand -24.8833 23.1632
lfingers 7.12502
lthumb 1.62426 53.1368
rfemur -33.694 -8.95567 20.9094
rtibia 56.4366
rfoot -37.7201 4.1929
rtoes -12.3566
lfemur -17.8223 5.45424 -13.2753
ltibia 67.0049
lfoot -34.9428 -5.26158
ltoes -18.4056
123
root 6.25498 19.158 -10.8675 12.2158 49.7329 6.04476
lowerback 12.2615 -2.72831 -3.32328
upperback -0.121271 -4.16823 -1.22416
thorax -6.8622 -1.93233 1.31891
lowerneck -18.3734 -5.83999 -1.70546
upperneck 35.2177 -8.39826 1.70417
head 15.6652 -3.36222 -0.501637
rclavicle 1.46156e-013 -7.95139e-016
rhumerus -24.9408 7.43079 -81.1895
rradius 41.8767
rwrist -14.69
rhand -39.6683 2.06782
rfingers 7.12502
rthumb -12.648 -27.5292
lclavicle 1.46156e-013 -7.95139e-016
lhumerus -23.749 -26.557 92.5343
lradius 67.8326
lwrist 32.2905
lhand -24.7655 23.2341
lfingers 7.12502
lthumb 1.73802 53.2068
rfemur -33.2472 -9.43456 21.1439
rtibia 55.8844
rfoot -37.9018 3.86716
rtoes -12.0723
lfemur -17.8912 6.11026 -13.5495
ltibia 65.6786
lfoot -36.4982 -3.72135
ltoes -18.9865
124
root 6.2225 19.1914 -10.5772 12.0445 50.7275 5.87404
lowerback 12.2538 -2.7267 -3.43017
upperback -0.109108 -4.17145 -1.09469
thorax -6.82711 -1.929 1.51426
lowerneck -18.3923 -6.05249 -1.84722
upperneck 35.277 -8.71975 1.85451
head 15.7256 -3.48783 -0.476342
rclavicle 3.8266e-015 -1.45113e-014
rhumerus -25.1589 7.18351 -80.7116
rradius 42.1799
rwrist -14.894
rhand -39.7248 2.26809
rfingers 7.12502
rthumb -12.7025 -27.3256
lclavicle 3.8266e-015 -1.45113e-014
lhumerus -23.9727 -27.0051 92.7888
lradius 68.2409
lwrist 32.5441
lhand -24.7435 23.3339
lfingers 7.12502
lthumb 1.75933 53.3064
rfemur -32.8799 -9.30442 21.374
rtibia 55.3607
rfoot -38.4136 3.17178
rtoes -11.9621
lfemur -17.906 6.67871 -13.7931
ltibia 64.0677
lfoot -38.0306 -2.37496
ltoes -19.3627
125
root 6.18884 19.2137 -10.2833 11.9 51.649 5.7995
lowerback 12.2531 -2.70736 -3.66563
upperback -0.0884939 -4.17144 -1.00075
thorax -6.78093 -1.92055 1.74344
lowerneck -18.3335 -6.24472 -1.94691
upperneck 35.297 -9.038 2.03994
head 15.7497 -3.60396 -0.439533
rclavicle -4.07012e-014 -2.34566e-014
rhumerus -25.516 7.0614 -80.3383
rradius 42.6216
rwrist -15.1165
rhand -39.7427 2.29083
rfingers 7.12502
rthumb -12.7197 -27.3018
lclavicle -4.07012e-014 -2.34566e-014
lhumerus -24.1627 -27.4284 92.9847
lradius 68.5871
lwrist 32.6911
lhand -24.7899 23.3157
lfingers 7.12502
lthumb 1.71448 53.2885
rfemur -32.5519 -9.43408 21.5016
rtibia 54.8868
rfoot -38.7318 2.97
rtoes -11.2126
lfemur -17.7212 7.27029 -14.0442
ltibia 62.2176
lfoot -39.3515 -1.23246
ltoes -19.2161
126
root 6.15757 19.2338 -9.99484 11.7439 52.609 5.72375
lowerback 12.3014 -2.72158 -3.76558
upperback -0.0754012 -4.20323 -0.963934
thorax -6.78256 -1.93182 1.84559
lowerneck -18.277 -6.41972 -2.03557
upperneck 35.3177 -9.35357 2.2742
head 15.7792 -3.71024 -0.383766
rclavicle -8.16508e-014 -3.97569e-015
rhumerus -25.9668 6.97158 -80.0551
rradius 43.1294
rwrist -15.0826
rhand -39.8869 2.25032
rfingers 7.12502
rthumb -12.8588 -27.3336
lclavicle -8.16508e-014 -3.97569e-015
lhumerus -24.2712 -27.9298 93.0571
lradius 68.8731
lwrist 32.937
lhand -24.5922 23.2245
lfingers 7.12502
lthumb 1.90547 53.1957
rfemur -32.253 -9.58391 21.5803
rtibia 54.4737
rfoot -39.0295 2.59294
rtoes -10.798
lfemur -17.4743 7.65067 -14.3053
ltibia 60.1843
lfoot -40.4482 0.0569936
ltoes -19.8617
127
root 6.1264 19.2522 -9.70345 11.6721 53.4677 5.72892
lowerback 12.2797 -2.73903 -4.17675
upperback -0.0437354 -4.27032 -0.792299
thorax -6.68989 -1.95076 2.26401
lowerneck -18.3265 -6.59247 -2.25422
upperneck 35.3445 -9.57757 2.39195
head 15.8348 -3.81146 -0.342665
rclavicle -4.17448e-015 2.24627e-014
rhumerus -26.3038 7.17534 -79.631
rradius 43.755
rwrist -15.6282
rhand -39.7469 2.25363
rfingers 7.12502
rthumb -12.7238 -27.3387
lclavicle -4.17448e-015 2.24627e-014
lhumerus -24.2814 -28.1376 93.1958
lradius 69.1398
lwrist 33.0437
lhand -24.5051 23.2848
lfingers 7.12502
lthumb 1.98953 53.2553
rfemur -32.0295 -9.49944 21.5523
rtibia 54.1053
rfoot -39.4963 2.14378
rtoes -10.504
lfemur -17.139 7.95465 -14.5871
ltibia 57.9918
lfoot -41.1773 1.15279
ltoes -20.0647
128
root 6.0982 19.2688 -9.4149 11.539 54.3846 5.6088
lowerback 12.2232 -2.75237 -4.23886
upperback -0.0397538 -4.29363 -0.794896
thorax -6.64808 -1.96136 2.29613
lowerneck -18.2634 -6.78681 -2.26783
upperneck 35.3562 -9.9453 2.61276
head 15.8568 -3.93187 -0.31515
rclavicle -4.98453e-014 3.57812e-015
rhumerus -26.8441 7.24697 -79.4918
rradius 44.343
rwrist -15.7189
rhand -40.0267 2.45186
rfingers 7.12502
rthumb -12.9935 -27.1235
lclavicle -4.98453e-014 3.57812e-015
lhumerus -24.4286 -28.6073 93.2045
lradius 69.4333
lwrist 33.0684
lhand -24.455 23.2991
lfingers 7.12502
lthumb 2.03797 53.2691
rfemur -31.8833 -9.42607 21.5741
rtibia 53.7809
rfoot -39.9382 1.75059
rtoes -10.0122
lfemur -16.7922 7.89437 -14.7454
ltibia 55.7137
lfoot -41.561 2.18175
ltoes -20.4391
